<svg xmlns="http://www.w3.org/2000/svg" viewBox="0 0 396.85 396.85"><defs><style>.cls-1{fill:none;}.cls-2{fill:#1440ff;}</style></defs><g id="Layer_2" data-name="Layer 2"><g id="Layer_1-2" data-name="Layer 1"><rect class="cls-1" width="396.85" height="396.85"/><path class="cls-2" d="M302.71,0H253.37a7.84,7.84,0,0,0-7.85,7.84v68.9c-14.32-12.92-34-20.89-60.59-20.89C128.21,55.85,78.77,114,76.34,181.06c-2.42,66.6,40.46,116.55,102,116.55,26.94,0,49.85-10.78,67.08-28-2,17.76-13.36,38-34.85,49.43-23.83,12.66-58.5,13.71-78.71,9.75a7.87,7.87,0,0,0-9.45,7.67v47.58a7.78,7.78,0,0,0,4.26,7C147,401.2,205,398.44,240.81,379.45c20.39-10.82,34.27-21.86,46.64-37.14a7.86,7.86,0,0,0,.46-9.28l-22.06-33.48a4.89,4.89,0,0,1,4.08-7.57h32.78a7.84,7.84,0,0,0,7.85-7.84V7.84A7.84,7.84,0,0,0,302.71,0Zm-106,229.57c-22.76,0-39.62-22.68-37.73-52.84,1.79-28.45,15.26-52.84,37.73-52.84s37.73,14.16,37.73,52.84S219.5,229.57,196.74,229.57Z"/></g></g></svg>